HIERARCHY
ROOT mixamorig_Hips
{
	OFFSET 0.000000 0.890477 -0.000138
	CHANNELS 6 Xposition Yposition Zposition Xrotation Yrotation Zrotation
	JOINT mixamorig_RightUpLeg
	{
		OFFSET -8.224193 -6.337456 -1.245509
		CHANNELS 3 Xrotation Yrotation Zrotation
		JOINT mixamorig_RightLeg
		{
			OFFSET -0.853740 -41.205795 -1.113445
			CHANNELS 3 Xrotation Yrotation Zrotation
			JOINT mixamorig_RightFoot
			{
				OFFSET 0.305346 -37.074059 5.547482
				CHANNELS 3 Xrotation Yrotation Zrotation
				JOINT mixamorig_RightToeBase
				{
					OFFSET 0.275999 -7.386046 -10.162342
					CHANNELS 3 Xrotation Yrotation Zrotation
					End Site
					{
						OFFSET 1.527623 -0.641087 -9.418583
					}
				}
			}
		}
	}
	JOINT mixamorig_LeftUpLeg
	{
		OFFSET 8.238425 -6.144493 -1.530489
		CHANNELS 3 Xrotation Yrotation Zrotation
		JOINT mixamorig_LeftLeg
		{
			OFFSET 0.999181 -40.793915 0.038145
			CHANNELS 3 Xrotation Yrotation Zrotation
			JOINT mixamorig_LeftFoot
			{
				OFFSET -1.148513 -38.134243 4.265069
				CHANNELS 3 Xrotation Yrotation Zrotation
				JOINT mixamorig_LeftToeBase
				{
					OFFSET -0.465251 -6.961702 -10.249644
					CHANNELS 3 Xrotation Yrotation Zrotation
					End Site
					{
						OFFSET -0.959344 -0.686551 -9.361076
					}
				}
			}
		}
	}
	JOINT mixamorig_Spine
	{
		OFFSET -0.012521 9.659492 0.152576
		CHANNELS 3 Xrotation Yrotation Zrotation
		JOINT mixamorig_Spine1
		{
			OFFSET 0.013316 9.940590 -0.620916
			CHANNELS 3 Xrotation Yrotation Zrotation
			JOINT mixamorig_Spine2
			{
				OFFSET -0.024142 10.082199 -0.544315
				CHANNELS 3 Xrotation Yrotation Zrotation
				JOINT mixamorig_Neck
				{
					OFFSET -0.280692 18.101685 -1.792333
					CHANNELS 3 Xrotation Yrotation Zrotation
					JOINT mixamorig_Head
					{
						OFFSET -0.018573 9.067642 0.460133
						CHANNELS 3 Xrotation Yrotation Zrotation
						End Site
						{
							OFFSET 0.158257 16.422226 3.010605
						}
					}
				}
				JOINT mixamorig_RightShoulder
				{
					OFFSET -4.418977 12.360168 -1.870196
					CHANNELS 3 Xrotation Yrotation Zrotation
					JOINT mixamorig_RightArm
					{
						OFFSET -0.840364 -0.706100 9.418602
						CHANNELS 3 Xrotation Yrotation Zrotation
						JOINT mixamorig_RightForeArm
						{
							OFFSET -2.498498 0.041534 25.943676
							CHANNELS 3 Xrotation Yrotation Zrotation
							JOINT mixamorig_RightHand
							{
								OFFSET -2.575367 0.795197 26.809452
								CHANNELS 3 Xrotation Yrotation Zrotation
								JOINT mixamorig_RightHandIndex1
								{
									OFFSET 3.136251 -0.538528 8.955254
									CHANNELS 3 Xrotation Yrotation Zrotation
									JOINT mixamorig_RightHandIndex2
									{
										OFFSET 0.051750 0.018234 3.880755
										CHANNELS 3 Xrotation Yrotation Zrotation
										JOINT mixamorig_RightHandIndex3
										{
											OFFSET 0.159386 -0.111511 2.528431
											CHANNELS 3 Xrotation Yrotation Zrotation
											End Site
											{
												OFFSET -0.186133 -0.129547 2.317834
											}
										}
									}
								}
								JOINT mixamorig_RightHandThumb1
								{
									OFFSET 3.146857 -1.651413 2.139514
									CHANNELS 3 Xrotation Yrotation Zrotation
									JOINT mixamorig_RightHandThumb2
									{
										OFFSET 0.227379 -1.950211 3.563250
										CHANNELS 3 Xrotation Yrotation Zrotation
										JOINT mixamorig_RightHandThumb3
										{
											OFFSET -0.284211 -0.956070 2.684949
											CHANNELS 3 Xrotation Yrotation Zrotation
											End Site
											{
												OFFSET -0.050027 -1.039322 2.580839
											}
										}
									}
								}
								JOINT mixamorig_RightHandMiddle1
								{
									OFFSET 0.842868 0.059799 9.204017
									CHANNELS 3 Xrotation Yrotation Zrotation
									JOINT mixamorig_RightHandMiddle2
									{
										OFFSET 0.007599 0.118408 3.598334
										CHANNELS 3 Xrotation Yrotation Zrotation
										JOINT mixamorig_RightHandMiddle3
										{
											OFFSET -0.157197 -0.125458 2.928855
											CHANNELS 3 Xrotation Yrotation Zrotation
											End Site
											{
												OFFSET 0.172696 -0.014359 2.626183
											}
										}
									}
								}
								JOINT mixamorig_RightHandRing1
								{
									OFFSET -1.001290 0.004471 8.712891
									CHANNELS 3 Xrotation Yrotation Zrotation
									JOINT mixamorig_RightHandRing2
									{
										OFFSET -0.114342 0.268219 2.619466
										CHANNELS 3 Xrotation Yrotation Zrotation
										JOINT mixamorig_RightHandRing3
										{
											OFFSET 0.155752 0.013962 2.934787
											CHANNELS 3 Xrotation Yrotation Zrotation
											End Site
											{
												OFFSET -0.022682 -0.334305 2.395091
											}
										}
									}
								}
								JOINT mixamorig_RightHandPinky1
								{
									OFFSET -2.870745 -0.520309 8.239086
									CHANNELS 3 Xrotation Yrotation Zrotation
									JOINT mixamorig_RightHandPinky2
									{
										OFFSET -0.064124 0.097565 3.353874
										CHANNELS 3 Xrotation Yrotation Zrotation
										JOINT mixamorig_RightHandPinky3
										{
											OFFSET 0.054191 -0.056305 1.657426
											CHANNELS 3 Xrotation Yrotation Zrotation
											End Site
											{
												OFFSET 0.034473 0.045517 1.902615
											}
										}
									}
								}
							}
						}
					}
				}
				JOINT mixamorig_LeftShoulder
				{
					OFFSET 4.067368 12.365417 -1.818083
					CHANNELS 3 Xrotation Yrotation Zrotation
					JOINT mixamorig_LeftArm
					{
						OFFSET 0.880652 -0.717896 9.769979
						CHANNELS 3 Xrotation Yrotation Zrotation
						JOINT mixamorig_LeftForeArm
						{
							OFFSET 2.551281 -0.093887 25.986422
							CHANNELS 3 Xrotation Yrotation Zrotation
							JOINT mixamorig_LeftHand
							{
								OFFSET 2.550158 0.834869 25.953165
								CHANNELS 3 Xrotation Yrotation Zrotation
								JOINT mixamorig_LeftHandIndex1
								{
									OFFSET -3.091449 -0.508453 8.774550
									CHANNELS 3 Xrotation Yrotation Zrotation
									JOINT mixamorig_LeftHandIndex2
									{
										OFFSET 0.036697 0.078873 3.768008
										CHANNELS 3 Xrotation Yrotation Zrotation
										JOINT mixamorig_LeftHandIndex3
										{
											OFFSET -0.146443 -0.119202 2.548758
											CHANNELS 3 Xrotation Yrotation Zrotation
											End Site
											{
												OFFSET 0.171421 0.029297 2.617404
											}
										}
									}
								}
								JOINT mixamorig_LeftHandThumb1
								{
									OFFSET -3.148789 -1.646713 2.206965
									CHANNELS 3 Xrotation Yrotation Zrotation
									JOINT mixamorig_LeftHandThumb2
									{
										OFFSET 0.080562 -1.997971 3.556270
										CHANNELS 3 Xrotation Yrotation Zrotation
										JOINT mixamorig_LeftHandThumb3
										{
											OFFSET 0.511188 -1.178329 2.869402
											CHANNELS 3 Xrotation Yrotation Zrotation
											End Site
											{
												OFFSET -0.395684 -1.027771 2.132432
											}
										}
									}
								}
								JOINT mixamorig_LeftHandMiddle1
								{
									OFFSET -0.779669 -0.015396 9.112029
									CHANNELS 3 Xrotation Yrotation Zrotation
									JOINT mixamorig_LeftHandMiddle2
									{
										OFFSET 0.052194 -0.112549 3.389368
										CHANNELS 3 Xrotation Yrotation Zrotation
										JOINT mixamorig_LeftHandMiddle3
										{
											OFFSET 0.178288 -0.162537 3.259809
											CHANNELS 3 Xrotation Yrotation Zrotation
											End Site
											{
												OFFSET -0.168278 0.311600 2.538658
											}
										}
									}
								}
								JOINT mixamorig_LeftHandRing1
								{
									OFFSET 1.087882 0.018982 8.604859
									CHANNELS 3 Xrotation Yrotation Zrotation
									JOINT mixamorig_LeftHandRing2
									{
										OFFSET 0.149309 0.141083 2.758817
										CHANNELS 3 Xrotation Yrotation Zrotation
										JOINT mixamorig_LeftHandRing3
										{
											OFFSET -0.068528 -0.036240 2.975783
											CHANNELS 3 Xrotation Yrotation Zrotation
											End Site
											{
												OFFSET -0.030775 -0.086090 2.514544
											}
										}
									}
								}
								JOINT mixamorig_LeftHandPinky1
								{
									OFFSET 2.960986 -0.570038 8.064888
									CHANNELS 3 Xrotation Yrotation Zrotation
									JOINT mixamorig_LeftHandPinky2
									{
										OFFSET 0.094121 0.094238 2.893586
										CHANNELS 3 Xrotation Yrotation Zrotation
										JOINT mixamorig_LeftHandPinky3
										{
											OFFSET -0.031188 0.050095 1.974020
											CHANNELS 3 Xrotation Yrotation Zrotation
											End Site
											{
												OFFSET -0.027014 0.187729 1.913422
											}
										}
									}
								}
							}
						}
					}
				}
			}
		}
	}
}
MOTION
Frames: 4
Frame Time: 0.03333333333333333
-4.570888 -4.372933 0.398798 0.000000 0.890477 -0.000138 -176.856926 82.493098 175.221169 -16.595758 70.522291 19.095035 1.921417 11.548440 4.098861 -1.316620 3.994632 0.490261 -1.137193 7.246825 -1.995443 -174.725900 -22.933741 176.996601 3.602718 -38.828997 -2.365606 -1.312770 -0.156361 3.188244 1.405928 1.842893 -0.756478 4.874536 -2.232509 -2.042567 2.290152 -0.071047 -3.551066 1.498942 0.415271 6.374168 2.387594 7.162243 0.624867 52.258495 -77.635194 60.188903 51.395169 16.993067 -32.253522 97.960315 62.212655 -84.320982 14.738221 -0.328994 13.595363 7.879168 7.013328 -0.041903 -0.490164 -6.805824 0.044424 9.576984 -2.673646 -3.419381 -6.889761 13.240225 -5.684583 -5.390497 -3.334620 1.798749 -6.506272 -4.711878 -2.575540 10.386220 6.154366 -2.500423 0.868717 0.476934 -2.512035 3.514033 3.714598 -1.259954 7.154993 8.780440 1.352425 -1.250004 -2.556635 -1.688103 20.026055 4.209526 0.770093 13.981560 9.174352 -2.205978 -1.845048 0.221963 -0.696047 4.830187 2.618490 1.798520 -33.850070 79.689406 41.734106 64.153950 -15.007174 30.908493 60.981383 -72.914621 55.487532 8.871583 15.680929 -7.956562 5.784238 2.427661 9.297316 2.527705 1.566203 8.456511 3.693482 -0.540193 4.606235 -16.369817 -27.106379 0.790433 0.038759 12.668627 -9.697433 -5.153655 28.064940 24.139282 5.614041 -2.114006 10.904007 12.824562 2.494759 1.679569 0.637419 -2.433385 -1.487857 11.039914 2.345542 5.187067 2.178499 1.489858 -0.028314 17.472321 -1.193213 -0.975662 6.185476 -2.077542 -0.231857 -0.079425 1.034245 -3.894826 19.806921 -0.034034 0.471206 
-4.570801 -4.372963 0.398829 0.000000 0.890477 -0.000138 -176.856926 82.493098 175.221169 -16.587628 70.522997 19.087068 1.922905 11.547796 4.096519 -1.320746 3.995327 0.491942 -1.136700 7.243792 -1.994589 -174.724927 -22.936456 176.998487 3.604992 -38.829889 -2.363729 -1.309903 -0.157835 3.185720 1.405928 1.842893 -0.756478 4.874473 -2.232543 -2.042964 2.290152 -0.071047 -3.551066 1.498942 0.415271 6.374168 2.387594 7.162243 0.624867 52.284920 -77.638644 60.214682 51.395169 16.993067 -32.253522 97.960315 62.212655 -84.320982 14.738221 -0.328994 13.595363 7.877413 7.008073 -0.040713 -0.498241 -6.799892 0.044247 9.568678 -2.671066 -3.416592 -6.889761 13.240225 -5.684583 -5.378535 -3.327022 1.795070 -6.491438 -4.701674 -2.569168 10.380155 6.155089 -2.499868 0.867949 0.476539 -2.509836 3.510921 3.711387 -1.258751 7.151118 8.780347 1.352976 -1.248877 -2.554361 -1.686601 20.008539 4.205767 0.770070 13.968812 9.171581 -2.217840 -1.843436 0.221795 -0.695442 4.825998 2.616136 1.797045 -33.850070 79.689406 41.734106 64.153950 -15.007174 30.908493 60.981383 -72.914621 55.487532 8.871583 15.680929 -7.956562 5.784238 2.427661 9.297316 2.527705 1.566203 8.456511 3.691138 -0.545084 4.603226 -16.369817 -27.106379 0.790433 0.038759 12.668627 -9.697433 -5.153655 28.064940 24.139282 5.614041 -2.114006 10.904007 12.824562 2.494759 1.679569 0.637419 -2.433385 -1.487857 11.039914 2.345542 5.187067 2.178499 1.489858 -0.028314 17.472321 -1.193213 -0.975662 6.185476 -2.077542 -0.231857 -0.079425 1.034245 -3.894826 19.806921 -0.034034 0.471206 
-4.568638 -4.373729 0.399606 0.000000 0.890477 -0.000138 -176.856926 82.493098 175.221169 -16.384188 70.540506 18.887705 1.960077 11.531683 4.037979 -1.423907 4.012655 0.533979 -1.136347 7.244069 -1.994229 -174.700579 -23.004304 177.045677 3.661875 -38.852188 -2.316782 -1.238256 -0.194722 3.122642 1.405928 1.842893 -0.756478 4.872910 -2.233394 -2.052890 2.290152 -0.071047 -3.551066 1.498942 0.415271 6.374168 2.387594 7.162243 0.624867 52.950451 -77.724039 60.864067 51.395169 16.993067 -32.253522 97.960315 62.212655 -84.320982 14.738221 -0.328994 13.595363 7.833589 6.876688 -0.011006 -0.700129 -6.651589 0.040095 9.360996 -2.606693 -3.346746 -6.889761 13.240225 -5.684583 -5.079361 -3.137317 1.702586 -6.121027 -4.446042 -2.410752 10.228543 6.173149 -2.485963 0.848750 0.466647 -2.454872 3.433142 3.631075 -1.228748 7.054237 8.778022 1.366741 -1.220720 -2.497498 -1.649078 19.570669 4.111801 0.769110 13.649950 9.103146 -2.514579 -1.803146 0.217604 -0.680296 4.721256 2.557342 1.760093 -33.850070 79.689406 41.734106 64.153950 -15.007174 30.908493 60.981383 -72.914621 55.487532 8.871583 15.680929 -7.956562 5.784238 2.427661 9.297316 2.527705 1.566203 8.456511 3.632472 -0.667327 4.527943 -16.369817 -27.106379 0.790433 0.038759 12.668627 -9.697433 -5.153655 28.064940 24.139282 5.614041 -2.114006 10.904007 12.824562 2.494759 1.679569 0.637419 -2.433385 -1.487857 11.039914 2.345542 5.187067 2.178499 1.489858 -0.028314 17.472321 -1.193213 -0.975662 6.185476 -2.077542 -0.231857 -0.079425 1.034245 -3.894826 19.806921 -0.034034 0.471206 
-4.566474 -4.374494 0.400383 0.000000 0.890477 -0.000138 -176.856926 82.493098 175.221169 -16.180391 70.557779 18.687986 1.997229 11.515532 3.979452 -1.527083 4.029908 0.576049 -1.135994 7.244347 -1.993870 -174.676159 -23.072134 177.092922 3.718799 -38.874453 -2.269793 -1.166648 -0.231689 3.059609 1.405928 1.842893 -0.756478 4.871346 -2.234244 -2.062816 2.290152 -0.071047 -3.551066 1.498942 0.415271 6.374168 2.387594 7.162243 0.624867 53.625411 -77.807779 61.522894 51.395169 16.993067 -32.253522 97.960315 62.212655 -84.320982 14.738221 -0.328994 13.595363 7.789853 6.745287 0.018591 -0.901946 -6.503275 0.036471 9.153245 -2.542574 -3.276671 -6.889761 13.240225 -5.684583 -4.779933 -2.948096 1.609128 -5.751451 -4.189395 -2.254050 10.076928 6.191177 -2.472012 0.829560 0.456738 -2.399912 3.355411 3.550722 -1.198858 6.957361 8.775678 1.380504 -1.192601 -2.440617 -1.611584 19.132846 4.017844 0.767429 13.330796 9.036344 -2.811643 -1.762855 0.213424 -0.665148 4.616481 2.498614 1.723035 -33.850070 79.689406 41.734106 64.153950 -15.007174 30.908493 60.981383 -72.914621 55.487532 8.871583 15.680929 -7.956562 5.784238 2.427661 9.297316 2.527705 1.566203 8.456511 3.573646 -0.789490 4.452537 -16.369817 -27.106379 0.790433 0.038759 12.668627 -9.697433 -5.153655 28.064940 24.139282 5.614041 -2.114006 10.904007 12.824562 2.494759 1.679569 0.637419 -2.433385 -1.487857 11.039914 2.345542 5.187067 2.178499 1.489858 -0.028314 17.472321 -1.193213 -0.975662 6.185476 -2.077542 -0.231857 -0.079425 1.034245 -3.894826 19.806921 -0.034034 0.471206 
